HIERARCHY
ROOT joint_Root
{
	OFFSET 0.0 0.0 0.0
	CHANNELS 6 Xposition Yposition Zposition Zrotation Xrotation Yrotation 
	JOINT Hips
	{
		OFFSET 4.5925 91.4895 -427.239
		CHANNELS 6 Xposition Yposition Zposition Zrotation Xrotation Yrotation 
		JOINT Spine
		{
			OFFSET 15.7357 0.0 0.0
			CHANNELS 6 Xposition Yposition Zposition Zrotation Xrotation Yrotation 
			JOINT Chest
			{
				OFFSET 8.98455 -0.406207 0.0
				CHANNELS 6 Xposition Yposition Zposition Zrotation Xrotation Yrotation 
				JOINT Neck
				{
					OFFSET 16.3773 0.0 0.0
					CHANNELS 6 Xposition Yposition Zposition Zrotation Xrotation Yrotation 
					JOINT Head
					{
						OFFSET 6.45672 0.0 0.0
						CHANNELS 6 Xposition Yposition Zposition Zrotation Xrotation Yrotation 
						End Site
						{
							OFFSET 0.0 0.0 0.0
						}
					}
				}
				JOINT Shoulder_L
				{
					OFFSET 12.9942 -0.242716 4.98039
					CHANNELS 6 Xposition Yposition Zposition Zrotation Xrotation Yrotation 
					JOINT UpperArm_L
					{
						OFFSET 5.34809 0.0 0.0
						CHANNELS 6 Xposition Yposition Zposition Zrotation Xrotation Yrotation 
						JOINT LowerArm_L
						{
							OFFSET 24.3286 1.87007e-05 0.0
							CHANNELS 6 Xposition Yposition Zposition Zrotation Xrotation Yrotation 
							JOINT Hand_L
							{
								OFFSET 22.2916 0.0 0.0
								CHANNELS 6 Xposition Yposition Zposition Zrotation Xrotation Yrotation 
								End Site
								{
									OFFSET 0.0 0.0 0.0
								}
							}
						}
					}
				}
				JOINT Shoulder_R
				{
					OFFSET 12.9945 -0.242716 -4.98039
					CHANNELS 6 Xposition Yposition Zposition Zrotation Xrotation Yrotation 
					JOINT UpperArm_R
					{
						OFFSET -5.34813 0.0 0.0
						CHANNELS 6 Xposition Yposition Zposition Zrotation Xrotation Yrotation 
						JOINT LowerArm_R
						{
							OFFSET -24.3289 0.000322201 0.0
							CHANNELS 6 Xposition Yposition Zposition Zrotation Xrotation Yrotation 
							JOINT Hand_R
							{
								OFFSET -22.2915 -0.000108084 0.0
								CHANNELS 6 Xposition Yposition Zposition Zrotation Xrotation Yrotation 
								End Site
								{
									OFFSET 0.0 0.0 0.0
								}
							}
						}
					}
				}
			}
		}
		JOINT UpperLeg_L
		{
			OFFSET -2.19248 -6.46944 0.0
			CHANNELS 6 Xposition Yposition Zposition Zrotation Xrotation Yrotation 
			JOINT LowerLeg_L
			{
				OFFSET 39.0811 0.0 -1.23785e-05
				CHANNELS 6 Xposition Yposition Zposition Zrotation Xrotation Yrotation 
				JOINT Foot_L
				{
					OFFSET 40.9854 0.0 -1.26872e-05
					CHANNELS 6 Xposition Yposition Zposition Zrotation Xrotation Yrotation 
					JOINT Toes_L
					{
						OFFSET 11.7543 0.0 0.0
						CHANNELS 6 Xposition Yposition Zposition Zrotation Xrotation Yrotation 
						End Site
						{
							OFFSET 0.0 0.0 0.0
						}
					}
				}
			}
		}
		JOINT UpperLeg_R
		{
			OFFSET -2.19251 6.46944 0.0
			CHANNELS 6 Xposition Yposition Zposition Zrotation Xrotation Yrotation 
			JOINT LowerLeg_R
			{
				OFFSET -39.0811 -0.00228153 -0.0401928
				CHANNELS 6 Xposition Yposition Zposition Zrotation Xrotation Yrotation 
				JOINT Foot_R
				{
					OFFSET -40.9854 0.0 0.0
					CHANNELS 6 Xposition Yposition Zposition Zrotation Xrotation Yrotation 
					JOINT Toes_R
					{
						OFFSET -11.7543 0.0 0.0
						CHANNELS 6 Xposition Yposition Zposition Zrotation Xrotation Yrotation 
						End Site
						{
							OFFSET 0.0 0.0 0.0
						}
					}
				}
			}
		}
	}
}
MOTION
Frames:	4
Frame Time:	0.0333333
0.000000 0.000000 0.000000 0.000000 0.000000 -0.000000 -1.035290 85.081400 -3.749610 87.977300 -4.555020 7.609490 15.735700 0.000005 -0.000001 88.028100 82.285100 -88.097300 8.984550 -0.406207 -0.000000 7.654460 -0.528747 -0.102784 16.377300 -0.000001 -0.000001 -2.249730 -0.648921 0.724280 6.456720 -0.000001 -0.000000 -3.432890 1.758780 -3.984170 12.994200 -0.242716 4.980390 -91.242300 4.039000 -72.888100 5.348090 -0.000007 -0.000001 -61.851600 33.992200 -13.508600 24.328600 0.000019 0.000005 9.793410 17.492700 -29.866900 22.291600 -0.000001 0.000005 10.172500 5.299570 0.086496 12.994500 -0.242716 -4.980390 88.597300 8.252790 -80.318700 -5.348130 -0.000001 -0.000004 -52.676100 42.724900 -16.568800 -24.328900 0.000322 -0.000009 0.725221 1.247080 -30.180800 -22.291500 -0.000108 -0.000004 2.300250 5.364770 -1.776040 -2.192480 -6.469440 -0.000000 -172.989000 -14.849100 -16.554000 39.081100 -0.000007 -0.000012 -0.228125 0.161265 54.743800 40.985400 -0.000006 -0.000013 1.949770 7.083170 -80.153400 11.754300 -0.000000 0.000003 -0.000060 -0.000664 -16.603300 -2.192510 6.469440 -0.000001 -179.864000 11.488700 162.948000 -39.081100 -0.002282 -0.040193 0.063718 -0.044046 53.937900 -40.985400 0.000008 0.000006 7.611700 3.772790 -79.976200 -11.754300 -0.000006 -0.000006 -0.001819 -0.026423 -17.647500
0.000000 0.000000 0.000000 0.000000 0.000000 -0.000000 -1.278610 86.364400 -3.052570 87.731100 -4.087090 7.853230 15.735700 0.000005 -0.000001 86.364600 82.805300 -87.200800 8.984550 -0.406207 -0.000000 6.589020 -0.900988 -1.618690 16.377300 -0.000001 -0.000001 -1.509740 -0.197946 0.555273 6.456720 -0.000001 -0.000000 -2.667460 2.137130 -2.464130 12.994200 -0.242716 4.980390 -91.242100 3.859930 -72.146200 5.348090 -0.000007 -0.000001 -62.050300 31.071100 -12.575800 24.328600 0.000019 0.000005 9.396240 17.877800 -28.326300 22.291600 -0.000001 0.000005 10.305700 5.271240 0.863643 12.994500 -0.242716 -4.980390 88.704500 7.006110 -79.494500 -5.348130 -0.000001 -0.000004 -50.521900 41.824300 -14.418700 -24.328900 0.000322 -0.000009 0.898939 1.226670 -36.325100 -22.291500 -0.000108 -0.000004 -6.296600 5.306560 -0.059951 -2.192480 -6.469440 -0.000000 -172.516000 -14.205200 -13.695600 39.081100 -0.000007 -0.000012 -0.224838 0.185129 50.533000 40.985400 -0.000006 -0.000013 1.501560 7.203090 -78.529800 11.754300 -0.000000 0.000003 -0.000047 -0.000534 -16.598300 -2.192510 6.469440 -0.000001 -179.770000 12.258200 165.977000 -39.081100 -0.002282 -0.040193 0.065353 -0.052740 49.661600 -40.985400 0.000008 0.000006 7.650390 4.283860 -78.223400 -11.754300 -0.000006 -0.000006 -0.002344 -0.032945 -17.912800
0.000000 0.000000 0.000000 0.000000 0.000000 -0.000000 -1.450140 88.210500 -2.202070 87.552200 -3.296500 7.594610 15.735700 0.000005 -0.000001 83.137600 83.659000 -84.846800 8.984550 -0.406207 -0.000000 4.806690 -1.468340 -3.352970 16.377300 -0.000001 -0.000001 -0.222047 0.014073 0.451022 6.456720 -0.000001 -0.000000 -1.811190 2.265420 0.213477 12.994200 -0.242716 4.980390 -91.104200 3.208730 -70.996300 5.348090 -0.000007 -0.000001 -62.611000 28.492000 -11.195400 24.328600 0.000019 0.000005 8.696990 17.271200 -27.258600 22.291600 -0.000001 0.000005 10.243800 5.247610 1.495940 12.994500 -0.242716 -4.980390 88.944800 5.031330 -78.133200 -5.348130 -0.000001 -0.000004 -44.138900 40.269300 -13.934800 -24.328900 0.000322 -0.000009 -0.563817 -0.584237 -43.725700 -22.291500 -0.000108 -0.000004 -12.718900 5.258910 1.217640 -2.192480 -6.469440 -0.000000 -172.551000 -12.603200 -10.134400 39.081100 -0.000007 -0.000012 -0.205772 0.214481 43.813300 40.985400 -0.000006 -0.000013 0.696693 6.581320 -75.707200 11.754300 -0.000000 0.000003 -0.000035 -0.000415 -16.593700 -2.192510 6.469440 -0.000001 -179.861000 13.585400 169.740000 -39.081100 -0.002282 -0.040193 0.055424 -0.055865 43.032300 -40.985400 0.000008 0.000006 7.398640 5.416710 -75.034700 -11.754300 -0.000006 -0.000006 -0.003070 -0.041386 -18.256200
0.000000 0.000000 0.000000 0.000000 0.000000 -0.000000 -1.422990 89.837500 -1.568090 87.603100 -3.068680 6.300490 15.735700 0.000005 -0.000001 79.704100 84.850000 -82.192900 8.984550 -0.406207 -0.000000 2.336650 -1.721730 -4.937740 16.377300 -0.000001 -0.000001 1.270610 -0.015334 0.639138 6.456720 -0.000001 -0.000000 -1.180120 2.487880 2.360730 12.994200 -0.242716 4.980390 -90.825200 2.231890 -69.700100 5.348090 -0.000007 -0.000001 -63.163300 26.812000 -9.525740 24.328600 0.000019 0.000005 8.481040 16.438100 -27.786700 22.291600 -0.000001 0.000005 9.767320 5.246930 1.512610 12.994500 -0.242716 -4.980390 89.354700 2.657410 -76.333700 -5.348130 -0.000001 -0.000004 -32.294500 35.509000 -16.659900 -24.328900 0.000322 -0.000009 -1.548660 -1.272830 -50.575900 -22.291500 -0.000108 -0.000004 -15.234500 5.235520 1.813770 -2.192480 -6.469440 -0.000000 -173.134000 -11.599600 -7.616230 39.081100 -0.000007 -0.000012 -0.180061 0.239767 36.906400 40.985400 -0.000006 -0.000013 0.071016 5.729370 -72.690900 11.754300 -0.000000 0.000003 -0.000024 -0.000293 -16.589000 -2.192510 6.469440 -0.000001 179.871000 15.332300 172.133000 -39.081100 -0.002282 -0.040193 0.043667 -0.054483 36.543900 -40.985400 0.000008 0.000006 7.255040 7.523200 -71.634700 -11.754300 -0.000006 -0.000006 -0.004360 -0.055130 -18.815800
